# xmcd
#
# Track frame offsets:
#  150
#  18727
#  37330
#  60063
#  76428
#  92716
#  120115
#  136461
#  153457
#  174336
#  193654
#  209332
#  224046
#  238065
#  255607
#  268119
#
# Disc length: 3820 seconds
#
# Revision: 0
# Processed by: cddbd v1.4PL0 Copyright (c) Steve Scherf et al.
# Submitted via: AltoMP3_Maker 3.0
#
DISCID=e50eea10
DTITLE=郑秀文 - e时代少女
DYEAR=1900
DGENRE=
TTITLE0=收获
TTITLE1=随身听
TTITLE2=我还记得我是谁
TTITLE3=快乐摇摆
TTITLE4=千载难逢
TTITLE5=离别的车站
TTITLE6=独一无二
TTITLE7=我爱你那么多
TTITLE8=开始懂了
TTITLE9=自己美
TTITLE10=全身暑假
TTITLE11=花火
TTITLE12=茶和咖啡
TTITLE13=想太多
TTITLE14=NO  WAY
TTITLE15=爱太沉重
EXTD=
EXTT0=
EXTT1=
EXTT2=
EXTT3=
EXTT4=
EXTT5=
EXTT6=
EXTT7=
EXTT8=
EXTT9=
EXTT10=
EXTT11=
EXTT12=
EXTT13=
EXTT14=
EXTT15=
PLAYORDER=
